<!-- Generated by IcoMoon.io -->
<svg version="1.1" xmlns="http://www.w3.org/2000/svg" width="32" height="32" viewBox="0 0 32 32">
<title>add-user</title>
<path d="M9.431 19.311v0c0.2 0 0.362 0.165 0.361 0.363v2.17c0.001 0.199 0.164 0.361 0.364 0.361h2.169c0.199 0 0.363 0.164 0.363 0.361l-0.001 2.172c0 0.198-0.164 0.361-0.361 0.361h-2.17c-0.199 0-0.363 0.163-0.363 0.362v2.17c-0.001 0.198-0.162 0.36-0.362 0.361h-2.17c-0.2 0-0.361-0.163-0.361-0.361l-0.001-2.169c0.001-0.199-0.164-0.362-0.361-0.362h-2.172c-0.196 0-0.361-0.163-0.361-0.361v-2.172c0-0.197 0.165-0.361 0.361-0.361h2.171c0.198 0 0.362-0.163 0.362-0.361l-0.001-2.17c0.001-0.198 0.162-0.363 0.361-0.363h2.17zM0 23.651c0 4.611 3.735 8.349 8.346 8.349s8.348-3.737 8.348-8.349c0-4.61-3.736-8.348-8.347-8.348s-8.347 3.738-8.347 8.348zM23.374 18.275c-0.301 0-0.311-0.767-0.311-1.193 0-0.525 0.069-0.814 0.069-0.814 0.899 0 2.256-1.498 2.693-2.88 0.246-0.779 1.635-0.92 1.635-2.982 0-1.806-0.799-1.305-0.799-1.441 0-0.134 0-1.964 0-3.040 0-1.994-1.781-5.924-7.395-5.924-5.614 0-7.393 3.93-7.393 5.924 0 1.075 0 2.906 0 3.040 0 0.136-0.8-0.364-0.8 1.441 0 2.061 1.389 2.204 1.635 2.982 0.256 0.803 0.821 1.644 1.427 2.209 0.191 0.14 0.382 0.283 0.564 0.436 0.249 0.148 0.489 0.235 0.703 0.235 0 0 0.039 0.168 0.058 0.477 1.764 1.825 2.856 4.304 2.856 7.037 0 2.001-0.59 3.862-1.593 5.435h15.662c0 0 0-2.628 0-4.734 0-1.646-4.132-6.208-9.011-6.208z"></path>
</svg>
